:FULLY-SPECIFIED
:FORCE-ALL-JOINTS-BE-3DOF
:DEGREES
408
root 4.43943 16.2444 -11.3549 4.79469 -35.8052 -4.64365
lfemur -30.2383 0.202863 -6.63685
ltibia 37.637 0 0
lfoot -6.00483 16.7992 0
ltoes 0.18964 0 0
rfemur -26.2703 -18.4923 27.4972
rtibia 73.9089 0 0
rfoot 2.68725 -1.21998 0
rtoes 32.2493 0 0
lowerback 3.98677 4.54817 1.0028
upperback 1.57818 6.06877 -1.2729
thorax -0.358097 3.03856 -2.11055
lowerneck -6.11018 1.06614 6.72903
upperneck 3.86952 0.748759 1.93454
head 2.30816 0.526986 -0.512693
lclavicle -2.15216e-14 -1.40716e-14 0
lhumerus -44.8811 -18.753 93.8768
lradius 51.3074 0 0
lwrist 19.0365 0 0
lhand -14.2677 4.80093 0
lfingers 7.12502 0 0
lthumb 11.8714 34.4538 0
rclavicle -2.15216e-14 -1.40716e-14 0
rhumerus -45.1099 11.5704 -92.9036
rradius 60.0461 0 0
rwrist 8.03256 0 0
rhand -17.6301 -17.3652 0
rfingers 7.12502 0 0
rthumb 8.62774 -767.183 0
409
root 4.37862 16.2241 -11.2573 4.79186 -36.0561 -4.58335
lfemur -30.145 0.183706 -6.73413
ltibia 37.5713 0 0
lfoot -5.94083 16.9162 0
ltoes 0.30939 0 0
rfemur -26.4249 -18.4979 27.566
rtibia 73.9875 0 0
rfoot 2.7571 -1.11344 0
rtoes 32.7264 0 0
lowerback 3.98894 4.55595 0.99297
upperback 1.58747 6.07787 -1.28384
thorax -0.349022 3.04339 -2.11685
lowerneck -6.1079 1.0848 6.74141
upperneck 3.88324 0.773155 1.92378
head 2.31432 0.539289 -0.517548
lclavicle -2.19909e-14 -1.3937e-14 0
lhumerus -44.9009 -18.6995 93.8546
lradius 51.2809 0 0
lwrist 19.0883 0 0
lhand -14.2837 4.81349 0
lfingers 7.12502 0 0
lthumb 11.8559 34.4668 0
rclavicle -2.19909e-14 -1.3937e-14 0
rhumerus -45.0699 11.6526 -92.9089
rradius 60.0386 0 0
rwrist 8.02275 0 0
rhand -17.5711 -17.2938 0
rfingers 7.12502 0 0
rthumb 8.68468 -767.11 0
410
root 4.3178 16.2037 -11.1598 4.7818 -36.2633 -4.52913
lfemur -30.0587 0.243622 -6.83056
ltibia 37.6196 0 0
lfoot -5.96567 16.958 0
ltoes 0.42038 0 0
rfemur -26.6639 -18.4189 27.5416
rtibia 73.9243 0 0
rfoot 2.8084 -1.00437 0
rtoes 33.049 0 0
lowerback 4.00887 4.55142 0.995349
upperback 1.6001 6.07139 -1.29206
thorax -0.346433 3.04038 -2.12753
lowerneck -6.10945 1.11905 6.76428
upperneck 3.89317 0.81884 1.88551
head 2.32198 0.561522 -0.532324
lclavicle -2.2599e-14 -1.35013e-14 0
lhumerus -44.908 -18.6625 93.8416
lradius 51.2424 0 0
lwrist 19.1046 0 0
lhand -14.3501 4.79325 0
lfingers 7.12502 0 0
lthumb 11.7919 34.4489 0
rclavicle -2.2599e-14 -1.35013e-14 0
rhumerus -45.0289 11.6976 -92.8901
rradius 60.0814 0 0
rwrist 8.0393 0 0
rhand -17.5758 -17.2429 0
rfingers 7.12502 0 0
rthumb 8.68009 -767.059 0
411
root 4.25699 16.1833 -11.0623 4.75894 -36.4186 -4.48259
lfemur -29.9719 0.393292 -6.91869
ltibia 37.808 0 0
lfoot -6.10662 16.9089 0
ltoes 0.508071 0 0
rfemur -27.0147 -18.2421 27.3913
rtibia 73.6983 0 0
rfoot 2.85194 -0.895488 0
rtoes 33.1693 0 0
lowerback 4.05125 4.53211 1.01184
upperback 1.61626 6.04623 -1.2979
thorax -0.352733 3.02794 -2.14412
lowerneck -6.11516 1.17474 6.80276
upperneck 3.9007 0.893519 1.81149
head 2.33229 0.597399 -0.560284
lclavicle -2.33999e-14 -1.26814e-14 0
lhumerus -44.9018 -18.6455 93.8415
lradius 51.1863 0 0
lwrist 19.0748 0 0
lhand -14.4765 4.7318 0
lfingers 7.12502 0 0
lthumb 11.6699 34.3921 0
rclavicle -2.33999e-14 -1.26814e-14 0
rhumerus -44.9923 11.6903 -92.8387
rradius 60.1918 0 0
rwrist 8.08898 0 0
rhand -17.6697 -17.2198 0
rfingers 7.12502 0 0
rthumb 8.58938 -767.036 0
412
root 4.19617 16.1629 -10.9648 4.71774 -36.5139 -4.44527
lfemur -29.8773 0.643398 -6.99105
ltibia 38.1623 0 0
lfoot -6.39096 16.7531 0
ltoes 0.557924 0 0
rfemur -27.5049 -17.9539 27.0819
rtibia 73.2887 0 0
rfoot 2.89853 -0.789505 0
rtoes 33.0399 0 0
lowerback 4.12082 4.49555 1.04435
upperback 1.63616 5.99927 -1.30168
thorax -0.370321 3.00448 -2.1682
lowerneck -6.12538 1.25767 6.86202
upperneck 3.90721 1.0049 1.69352
head 2.34638 0.650629 -0.604692
lclavicle -2.44476e-14 -1.13939e-14 0
lhumerus -44.8817 -18.6519 93.858
lradius 51.1069 0 0
lwrist 18.988 0 0
lhand -14.6724 4.62073 0
lfingers 7.12502 0 0
lthumb 11.4808 34.2884 0
rclavicle -2.44476e-14 -1.13939e-14 0
rhumerus -44.9658 11.6154 -92.7465
rradius 60.3868 0 0
rwrist 8.17854 0 0
rhand -17.8783 -17.2314 0
rfingers 7.12502 0 0
rthumb 8.38793 -767.049 0
413
root 4.13536 16.1426 -10.8672 4.65264 -36.5411 -4.41877
lfemur -29.7676 1.00462 -7.0402
ltibia 38.7088 0 0
lfoot -6.84598 16.4749 0
ltoes 0.555404 0 0
rfemur -28.1617 -17.5411 26.5806
rtibia 72.6743 0 0
rfoot 2.95897 -0.689142 0
rtoes 32.6133 0 0
lowerback 4.2223 4.43927 1.09478
upperback 1.66 5.92742 -1.30376
thorax -0.401599 2.96841 -2.20132
lowerneck -6.14043 1.37369 6.94719
upperneck 3.91411 1.16067 1.52337
head 2.3654 0.724926 -0.668809
lclavicle -2.57958e-14 -9.55541e-15 0
lhumerus -44.847 -18.6851 93.8948
lradius 50.9987 0 0
lwrist 18.8335 0 0
lhand -14.9475 4.45164 0
lfingers 7.12502 0 0
lthumb 11.2153 34.1296 0
rclavicle -2.57958e-14 -9.55541e-15 0
rhumerus -44.9546 11.4579 -92.605
rradius 60.6838 0 0
rwrist 8.31474 0 0
rhand -18.227 -17.2848 0
rfingers 7.12502 0 0
rthumb 8.05114 -767.106 0
414
root 4.07454 16.1222 -10.7697 4.55808 -36.4922 -4.40464
lfemur -29.6356 1.48765 -7.05869
ltibia 39.4733 0 0
lfoot -7.49896 16.0586 0
ltoes 0.48597 0 0
rfemur -29.0126 -16.9901 25.8544
rtibia 71.8344 0 0
rfoot 3.04406 -0.597118 0
rtoes 31.8417 0 0
lowerback 4.36041 4.36081 1.16504
upperback 1.68799 5.82755 -1.30446
thorax -0.448968 2.91815 -2.24504
lowerneck -6.16065 1.52861 7.06341
upperneck 3.92279 1.36856 1.29283
head 2.3905 0.824 -0.7559
lclavicle -2.74985e-14 -7.08263e-15 0
lhumerus -44.797 -18.7486 93.9555
lradius 50.8559 0 0
lwrist 18.6003 0 0
lhand -15.3114 4.2161 0
lfingers 7.12502 0 0
lthumb 10.8641 33.9079 0
rclavicle -2.74985e-14 -7.08263e-15 0
rhumerus -44.9642 11.2026 -92.4058
rradius 61.1 0 0
rwrist 8.50436 0 0
rhand -18.7414 -17.3869 0
rfingers 7.12502 0 0
rthumb 7.5544 -767.213 0
